<?xml version="1.0" standalone="no"?><!DOCTYPE svg PUBLIC "-//W3C//DTD SVG 1.1//EN" "http://www.w3.org/Graphics/SVG/1.1/DTD/svg11.dtd"><svg t="1607138243699" class="icon" viewBox="0 0 1024 1024" version="1.1" xmlns="http://www.w3.org/2000/svg" p-id="5977" xmlns:xlink="http://www.w3.org/1999/xlink" width="200" height="200"><defs><style type="text/css"></style></defs><path d="M323.816663 74.82705L195.063558 149.6541 65.417883 74.82705 194.170989 0l129.645674 74.82705z" fill="#3FA9F5" p-id="5978"></path><path d="M323.816663 74.82705l-1.636377 571.095518L193.427181 720.749619l1.636377-571.095519 128.753105-74.82705z" fill="#3F59F5" p-id="5979"></path><path d="M195.063558 149.6541l-1.636377 571.095519L63.855887 645.922568l1.561996-571.095518 129.645675 74.82705z" fill="#13227a" p-id="5980" data-spm-anchor-id="a313x.7781069.0.i10" class="selected"></path><path d="M65.417883 74.82705L194.170989 0l129.645674 74.82705" fill="#45B1F4" p-id="5981"></path><path d="M142.550737 686.534466l-8.77693-0.148761 5.355415-364.31699-35.256483-14.653011V104.281833h8.70255v197.332172l35.405244 14.65301-5.429796 370.267451z" fill="#5FC1F2" p-id="5982"></path><path d="M629.967894 78.322946L501.214789 153.149996 371.569115 78.322946 500.396601 3.495896l129.571293 74.82705z" fill="#EBED8E" p-id="5983"></path><path d="M629.967894 78.322946l-1.636377 719.93143-128.753105 74.827051 1.636377-719.931431 128.753105-74.82705z" fill="#EC9839" p-id="5984"></path><path d="M501.214789 153.149996l-1.636377 719.931431-129.571294-74.827051 1.561997-719.93143 129.645674 74.82705z" fill="#F3DF7D" p-id="5985"></path><path d="M371.569115 78.322946L500.396601 3.495896l129.571293 74.82705" fill="#F4F492" p-id="5986"></path><path d="M448.701968 838.866274l-8.77693-0.07438 5.355415-513.227283-35.256483-14.653011V107.777729h8.70255v197.332171l35.405244 14.653011-0.07438 2.975231-5.355416 516.128132z" fill="#FFE885" p-id="5987"></path><path d="M967.135905 97.885088l-128.753106 74.82705-129.645674-74.82705L837.49023 23.058037l129.645675 74.827051z" fill="#8BF6C7" p-id="5988"></path><path d="M967.135905 97.885088l-1.636377 851.287862-128.753105 74.82705 1.636376-851.287862 128.753106-74.82705z" fill="#039E5E" p-id="5989"></path><path d="M838.382799 172.712138l-1.636376 851.287862-129.571294-74.82705 1.561996-851.287862 129.645674 74.82705z" fill="#13227a" p-id="5990" data-spm-anchor-id="a313x.7781069.0.i11" class="selected"></path><path d="M785.869979 989.784848l-8.77693-0.074381 5.355415-644.583715-35.256483-14.65301V127.339871h8.702549v197.25779l35.330864 14.727392-5.355415 650.459795z" fill="#2EE596" p-id="5991"></path><path d="M708.737125 97.885088L837.49023 23.058037l129.645675 74.827051" fill="#92F4C5" p-id="5992"></path><path d="M356.841723 256.762403l-251.406988 52.959105L56.864095 335.382872l251.406988-52.959105 121.984456 245.159003 201.795017-43.066463 48.496259-25.586983-201.720636 42.992082-121.984456-245.159003z" fill="#DDDDDD" p-id="5993"></path><path d="M630.191037 366.548413l-48.49626 25.661364 271.712937 133.810997L751.059781 702.898235l48.57064-25.586983 102.273552-176.951842-271.712936-133.810997z" fill="#DDDDDD" p-id="5994"></path><path d="M853.407714 526.020774L751.059781 702.898235l-44.70284-82.339508-297.969347 63.521174L286.403138 438.846517l-149.430958 31.686206L56.864095 335.382872l251.406988-52.959105 121.984456 245.159003 201.795017-43.066463-50.355779-92.30653 271.712937 133.810997z" fill="#FFFFFF" p-id="5995"></path></svg>