<?xml version="1.0" encoding="UTF-8"?>
<svg width="199px" height="286px" viewBox="0 0 199 286" version="1.1" xmlns="http://www.w3.org/2000/svg" xmlns:xlink="http://www.w3.org/1999/xlink">
    <!-- Generator: Sketch 50.2 (55047) - http://www.bohemiancoding.com/sketch -->
    <title>植物-大叶盆</title>
    <desc>Created with Sketch.</desc>
    <defs></defs>
    <g id="植物" stroke="none" stroke-width="1" fill="none" fill-rule="evenodd">
        <g id="Artboard" transform="translate(-76.000000, -32.000000)">
            <g id="植物-大叶盆" transform="translate(76.000000, 33.000000)">
                <path d="M39.9401408,5.30882353 C39.9401408,5.30882353 34.8950704,105.689216 100.480986,133.588235 C100.480986,133.588235 128.228873,32.0862745 39.9401408,5.30882353 Z" id="Shape" fill="#6AC73F" fill-rule="nonzero"></path>
                <path d="M63.4838028,126.99902 C63.4838028,126.99902 2.66267606,124.896078 1.12112676,106.25 C-0.420422535,87.6039216 56.7570423,96.9970588 63.4838028,126.99902 Z" id="Shape" fill="#FF7447" fill-rule="nonzero"></path>
                <path d="M126.687324,176.207843 C126.687324,176.207843 167.047887,123.634314 191.572535,140.598039 C194.528385,142.571635 196.268214,145.921919 196.182949,149.476035 C196.097684,153.03015 194.1992,156.293081 191.152113,158.122549 C187.228169,160.505882 178.539437,162.468627 168.449296,163.169608 L126.687324,176.207843 Z" id="Shape" fill="#6AC73F" fill-rule="nonzero"></path>
                <path d="M94.5950704,209.434314 L47.2274648,196.816667 C39.9318675,195.151646 35.047213,188.274238 35.8760563,180.834314 C36.7169014,174.52549 41.7619718,169.338235 58.1584507,173.263725 C59.0866696,173.393699 59.9866346,173.67801 60.8211268,174.104902 C66.9873239,176.768627 92.6330986,188.965686 94.5950704,209.434314" id="Shape" fill="#6AC73F" fill-rule="nonzero"></path>
                <path d="M174.615493,47.6480392 C174.615493,47.6480392 112.252817,58.4431373 118.278873,140.878431 C118.278873,140.878431 173.634507,121.671569 174.615493,47.6480392 Z" id="Shape" fill="#FF7447" fill-rule="nonzero"></path>
                <path d="M108.048592,258.923529 C108.048592,258.923529 110.430986,152.37451 115.335915,144.944118 C122.062676,134.990196 99.3598592,63.9107843 171.252113,43.8627451 C171.252113,43.8627451 169.990845,107.932353 116.316901,145.504902" id="Shape" stroke="#28282D" stroke-width="1.4"></path>
                <path d="M103.423944,249.530392 C103.423944,249.530392 105.806338,193.171569 81.421831,152.514706 C75.2556338,142.420588 72.4528169,137.794118 68.1084507,133.868627 C62.1035532,128.393367 54.577082,124.873111 46.5267606,123.77451 C30.2704225,121.25098 -1.5415493,114.801961 0.84084507,103.02549 C0.84084507,103.02549 43.3035211,73.0235294 81.421831,152.514706" id="Shape" stroke="#28282D" stroke-width="1.4"></path>
                <path d="M99.5,138.07451 C99.2145363,136.593898 98.3589224,135.284796 97.1176056,134.429412 C38.1183099,84.3794118 56.3366197,0.121568627 56.3366197,0.121568627 C139.440141,43.1617647 99.5,138.07451 99.5,138.07451 C108.469014,171.861765 105.245775,254.016667 105.245775,254.016667" id="Shape" stroke="#28282D" stroke-width="1.4"></path>
                <path d="M114.35493,244.903922 C114.35493,244.903922 111.552113,148.028431 180.78169,136.532353 C186.404983,135.455388 192.1651,137.555697 195.776761,142 C198.579577,145.92549 199.840845,151.393137 194.235211,158.543137 C190.943595,162.551699 185.962981,164.783478 180.78169,164.571569 C167.608451,164.15098 138.739437,165.132353 126.827465,180.97451" id="Shape" stroke="#28282D" stroke-width="1.4"></path>
                <path d="M111.972535,274.765686 C111.972535,274.765686 114.635211,177.890196 49.4697183,166.394118 C44.1272456,165.267941 38.6253336,167.414533 35.4556338,171.861765 C32.6528169,175.647059 31.5316901,181.254902 36.7169014,188.264706 C39.7158826,192.268723 44.4702009,194.56842 49.4697183,194.433333 C61.9422535,193.872549 89.1295775,194.994118 100.200704,210.836275" id="Shape" stroke="#28282D" stroke-width="1.4"></path>
                <path d="M133.974648,101.903922 C133.974648,101.903922 125.426056,115.783333 119.4,138.214706" id="Shape" stroke="#28282D" stroke-width="1.4"></path>
                <path d="M63.4838028,182.236275 C63.4838028,182.236275 82.6830986,186.301961 88.7091549,197.657843" id="Shape" stroke="#28282D" stroke-width="1.4"></path>
                <polygon id="Shape" fill="#0F3310" fill-rule="nonzero" points="72.0323944 231.304902 146.727465 231.304902 146.727465 241.118627 141.542254 241.118627 133.834507 276.448039 128.789437 276.448039 128.789437 284.439216 90.1105634 284.439216 90.1105634 276.868627 84.2246479 276.868627 75.2556338 237.753922 71.1915493 237.753922 71.1915493 231.304902"></polygon>
            </g>
        </g>
    </g>
</svg>